<?xml version="1.0" encoding="UTF-8"?>
<svg width="48" height="48" viewBox="0 0 48 48" fill="none" xmlns="http://www.w3.org/2000/svg">
  <rect width="48" height="48" rx="8" fill="#FF5A5F"/>
  <path d="M24 10C21.8 10 20 11.8 20 14C20 16.2 21.8 18 24 18C26.2 18 28 16.2 28 14C28 11.8 26.2 10 24 10ZM24 20C19 20 14 22.5 14 26C14 29.5 16.5 32.5 20 34C21.5 34.5 22.8 35 24 35C25.2 35 26.5 34.5 28 34C31.5 32.5 34 29.5 34 26C34 22.5 29 20 24 20ZM24 38C20 38 16.5 36.5 14 34C11.5 31.5 10 28 10 24C10 16 16 10 24 10C32 10 38 16 38 24C38 28 36.5 31.5 34 34C31.5 36.5 28 38 24 38Z" fill="white"/>
</svg>